<svg xmlns="http://www.w3.org/2000/svg" viewBox="0 0 163.19 21.75"><title>Asset 12</title><g id="Layer_2" data-name="Layer 2"><g id="Layer_13" data-name="Layer 13"><path d="M33.4,9c-6.95,0,5.74.23-.15.17C35.43,5.4,37.91,2.91,40.1,0,27.47,4.83,14.18,10.6,0,10.82a4.41,4.41,0,0,0,2.9,1.46c2.37.46,4.79.73,7.2,1,9.07.88,18.11,1.86,26.13,6.49.53.3,4.46,2,4.46,2s-2.14-4.38-2.53-4.89c-.88-1.18-1.31-1.66-2.51-3.3,7.13-.08,13.81-.2,20.49-.22q29.44-.06,58.9-.05,24.08,0,48.15,0C163.22,11.85,33.5,10.4,33.4,9Z"/></g></g></svg>