<?xml version="1.0" encoding="utf-8"?>
<!-- Generator: Adobe Illustrator 22.1.0, SVG Export Plug-In . SVG Version: 6.00 Build 0)  -->
<svg version="1.1" id="Layer_1" xmlns="http://www.w3.org/2000/svg" xmlns:xlink="http://www.w3.org/1999/xlink" x="0px" y="0px"
	 viewBox="0 0 200 200" style="enable-background:new 0 0 200 200;" xml:space="preserve">
<style type="text/css">
	.st0{fill:#FFFFFF;}
</style>
<g>
	<g>
		<path class="st0" d="M62.8,106.3c-0.1,0-0.2,0.1-0.2,0.1c-0.5,0.1-0.7,0.5-0.9,0.9c-0.4,1-0.6,2-0.6,3c0,1.3,0.1,2.5,0.2,3.8
			c0.2,2,0.4,3.9,0.2,5.9c0,0.3,0,0.6,0,0.9c0,1.5-0.2,3.1-0.3,4.6c0,1.1-0.1,2.2-0.1,3.4c0,0.9-0.1,1.8,0,2.7
			c0.1,1.2,0,2.4,0.1,3.6c0.1,0.9,0.2,1.8,0.1,2.7c0,1,0,2-0.3,2.9c-0.4,1.3-0.9,2.5-1.8,3.5c-0.2,0.3-0.6,0.5-0.8,0.7
			c-0.6,0.6-1.2,1.1-1.8,1.7c-0.2,0.1-0.3,0.2-0.6,0.2c-0.7,0-1.4,0-2.1-0.1c-0.2,0-0.2,0.1-0.3,0.2c-0.2,0.2-0.3,0.4-0.5,0.6
			c-0.1,0.2-0.3,0.2-0.6,0.2c-0.3,0-0.6-0.1-0.9-0.1c-0.4,0-0.5-0.3-0.7-0.6c-0.7-1.1-1.4-2.2-2-3.4c-0.5-1.2-1-2.4-1.3-3.7
			c-0.1-0.7-0.3-1.4-0.4-2.2c-0.1-1.3-0.1-2.6,0-3.9c0.1-1.1,0.2-2.3,0.4-3.4c0.1-1.1,0.4-2.1,0.5-3.1c0.1-0.7,0.2-1.4,0.3-2.1
			c0.1-0.3,0.2-0.7,0-1c-0.1-0.2,0-0.3,0.1-0.5c0.2-0.2,0.2-0.4,0-0.6c-0.1-0.2-0.2-0.4-0.1-0.7c0.2-0.5,0.1-0.9,0.2-1.4
			c0.1-1.5,0.1-2.9,0.2-4.4c0.1-1.4,0.2-2.7,0.1-4.1c0-0.9,0-1.9-0.1-2.8c0-0.5,0-1,0-1.5c0-0.2-0.2-0.4,0-0.6
			c0-0.1-0.3-0.2-0.4-0.1c-0.3,0.1-0.6,0.2-0.9,0.4l0,0c-0.5,0.1-1,0.4-1.5,0.6c-0.4,0.1-0.8,0.2-1.1,0.4l0,0c-0.1,0-0.2,0-0.3,0.1
			c-0.7,0.3-1.4,0.5-2.1,0.7c-0.4,0.2-0.9,0.3-1.3,0.5c-0.6,0.2-1.2,0.5-1.9,0.8c-0.3,0.1-0.7,0.2-0.9,0.3l0,0
			c-0.1,0-0.2-0.1-0.3,0.1l0,0c-0.4,0-0.7,0.2-1.1,0.4l0,0c-0.4,0-0.7,0.2-1,0.4c-1.1,0.6-2.1,1.3-2.9,2.3c-0.7,0.8-1.1,1.8-1,2.9
			c0,0.1,0,0.3,0,0.4c-0.2,0.8-0.5,1.6-1,2.3c-0.8,1.2-1.7,2.4-2.5,3.6c-0.5,0.7-0.9,1.4-1.2,2.1c-0.2,0.5-0.5,0.7-1,0.9
			c-1.3,0.5-2.7,0.9-4,1.5c-0.7,0.3-1.2,0.7-1.8,1.1c-0.2,0.2-0.4,0.2-0.6,0.3c-0.7,0-1.4,0.1-2.1,0.3c-0.4,0.1-0.8,0.3-1.2,0.5
			c-0.2,0.1-0.4,0.1-0.6,0c-0.9-0.6-1.7-1.2-2.6-1.7c-0.1-0.1-0.1-0.2-0.2-0.3c-0.2-0.5-0.4-1.1-0.5-1.6c-0.1-0.2-0.3-0.4-0.3-0.6
			c0-0.3-0.1-0.4-0.3-0.5c-0.2-0.1-0.3-0.3-0.2-0.6c0.1-0.1,0-0.2,0-0.3c-0.2-0.6-0.4-1.1-0.8-1.6l0,0c0-0.1,0-0.1-0.1-0.1l0,0
			c0-0.1,0-0.2-0.1-0.2l0,0c-0.3-0.7-0.8-1.2-1.5-1.5c-0.1-0.1-0.2-0.1-0.2-0.3c0-0.7-0.3-1.3-0.3-2c0-0.1-0.1-0.2-0.2-0.2l0,0
			c-0.1-0.2-0.2-0.4-0.5-0.5l0,0c0-0.1-0.2-0.2-0.3-0.2l0,0c-0.1-0.3-0.3-0.4-0.5-0.6l0,0c0-0.1,0-0.1-0.1-0.1l0,0
			c-0.1-0.2-0.3-0.4-0.5-0.5l0,0c-0.2-0.4-0.5-0.8-0.7-1.2c-0.2-0.5-0.3-1.1-0.1-1.6c0.2-0.6,0.5-1.1,0.8-1.5
			c0.1-0.2,0.2-0.3,0.3-0.5c0.3-0.3,0.6-0.6,0.9-0.9c0.1-0.1,0.2-0.1,0.3-0.3c0,0,0.1-0.1,0.1-0.1l0,0c0.1,0,0.1,0,0.1-0.1l0,0
			c0.1,0,0.2,0,0.2-0.1l0,0c0.2,0,0.3-0.1,0.4-0.3l0,0c0.2,0,0.3-0.1,0.4-0.3l0,0c0.1,0,0.1,0,0.2-0.1l0,0c0.1,0,0.1,0,0.1-0.1l0,0
			c0.2-0.1,0.4-0.2,0.6-0.4l0,0c0.1,0,0.2,0,0.2-0.1l0,0c0.1,0,0.2,0,0.2-0.1l0,0c0.1,0,0.2,0,0.2-0.1l0,0c0.2,0,0.3,0,0.4-0.2l0,0
			c0.1,0,0.1,0,0.1-0.1l0,0c0.2,0,0.4,0,0.5-0.2l0,0c0.7-0.3,1.3-0.4,2.1-0.6c0.5-0.1,1.1-0.1,1.6-0.2c0.7-0.1,1.5-0.2,2.2-0.3
			c0.2,0,0.4,0,0.5-0.2l0,0c0.2,0,0.4,0,0.6-0.2l0,0c0.4-0.1,0.8-0.2,1.1-0.4l0,0c0.2,0,0.5-0.1,0.6-0.3l0,0c0.1,0,0.2-0.1,0.3-0.2
			l0,0c0.1,0,0.1,0,0.2-0.1l0,0c0.1,0,0.1,0,0.1-0.1l0,0c0.2,0,0.3-0.1,0.5-0.3l0,0c0.1,0,0.3,0,0.4,0c0.5-0.1,1-0.1,1.5-0.2
			c0.7-0.2,1.5-0.3,2.1-0.7l0,0c0.2-0.1,0.4-0.1,0.6-0.2c0.2,0,0.3-0.2,0.4-0.3c0.2-0.3,0.2-0.6,0.2-0.9c0.1-0.7-0.1-1.3-0.6-1.8
			c-0.6-0.6-1.3-0.9-2.1-1.2l0,0c0-0.1,0-0.1-0.1-0.1c-0.1-0.1-0.1-0.1-0.2-0.1c-0.1-0.1-0.1-0.1-0.2-0.1l0,0c0-0.1-0.1-0.1-0.2-0.1
			c-0.7-0.2-1.3-0.6-1.9-0.9c-0.5-0.3-1.1-0.6-1.7-0.8l0,0c-0.2-0.2-0.5-0.3-0.7-0.4l0,0c-0.2-0.2-0.5-0.2-0.7-0.2
			c-0.4-0.1-0.8-0.1-1.1,0.1c-0.2,0-0.3,0.1-0.5,0.3c-0.1,0-0.1,0.1-0.1,0.1l0,0c-0.1,0-0.2,0.1-0.2,0.2l0,0
			c-0.1,0.1-0.2,0.3-0.4,0.3c-0.4,0.1-0.7,0.2-1.1,0.4c-0.3,0.1-0.5,0-0.7-0.1c-0.3-0.2-0.5-0.5-0.8-0.8c-0.3-0.3-0.4-0.7-0.7-1
			c-0.2-0.5-0.4-1-0.5-1.5c0-0.1,0-0.2,0-0.4c-0.2-0.9-0.3-1.9-0.2-2.8l0,0c0.1-0.2,0.1-0.4,0.1-0.6l0,0c0.2-0.2,0.2-0.5,0.3-0.7
			c0.6-0.5,1.2-0.9,1.8-1.4c0.8-0.6,1.6-1.2,2.5-1.6c0.9-0.4,1.8-1,2.7-1.4c0.2-0.1,0.3-0.3,0.5-0.4c0.1,0,0.1,0,0.2,0
			c0.4-0.2,0.8-0.3,1.2-0.5c0.5-0.3,1-0.6,1.5-0.8c1.3-0.6,2.6-1.4,3.9-2.3c0.1-0.1,0.2-0.1,0.3,0c0,0.1,0.1,0.1,0,0.2
			c-0.1,0.1-0.2,0.1-0.3,0c-0.2-0.3-0.6-0.3-0.8-0.5l0,0c-0.1-0.2-0.3-0.3-0.5-0.4l0,0c0-0.1,0-0.1-0.1-0.1l0,0c0-0.1,0-0.1-0.1-0.1
			l0,0c-0.3-0.2-0.6-0.5-0.9-0.7c0,0,0,0,0,0c-0.1-0.2-0.3-0.3-0.5-0.4l0,0c-0.2-0.3-0.5-0.5-0.8-0.8l0,0c0,0,0-0.1-0.1-0.1
			c0,0-0.1-0.1-0.1-0.1c-0.1-0.1-0.2-0.3-0.4-0.4l0,0c0-0.1,0-0.1-0.1-0.1l0,0c0-0.1,0-0.1-0.1-0.2l0,0c0-0.1-0.1-0.2-0.2-0.2l0,0
			c0-0.1,0-0.1-0.1-0.1l0,0c0-0.2-0.1-0.3-0.3-0.4l0,0c0-0.1,0-0.1-0.1-0.1l0,0c0-0.1,0-0.1-0.1-0.2l0,0c0-0.1,0-0.1-0.1-0.1l0,0
			c0-0.1,0-0.1-0.1-0.1l0,0c0-0.1,0-0.1-0.1-0.2l0,0c0-0.1-0.1-0.2-0.2-0.3l0,0c-0.1-0.2-0.2-0.3-0.4-0.5l0,0
			c-0.2-0.4-0.5-0.7-0.7-1.1l0,0c-0.1-0.2-0.2-0.5-0.4-0.6l0,0c0-0.1,0-0.1-0.1-0.1l0,0c0-0.2,0-0.3-0.2-0.4l0,0
			c0-0.2-0.1-0.3-0.2-0.4l0,0c0-0.1,0-0.1-0.1-0.1l0,0c0-0.1,0-0.1-0.1-0.1l0,0c0-0.1,0-0.2-0.1-0.2l0,0c0-0.1,0-0.2-0.1-0.2l0,0
			c0-0.1,0-0.2-0.1-0.2l0,0c0-0.3-0.2-0.6-0.4-0.8l0,0c0-0.1,0-0.2-0.1-0.2l0,0c-0.2-0.5-0.5-1-0.6-1.5c0-0.1-0.1-0.1-0.2-0.1l0,0
			c0-0.1,0-0.1-0.1-0.1l0,0c0-0.3,0-0.7-0.3-1c0,0,0-0.1,0-0.1c-0.2-0.4-0.3-0.9-0.5-1.4l0,0c0-0.3-0.1-0.6-0.2-0.8
			c-0.5-1-0.7-2.1-1.1-3.2c-0.3-0.8-0.6-1.7-1.1-2.5c-0.4-0.7-0.8-1.4-1.1-2.2c-0.2-0.4-0.2-0.8-0.5-1.2l0,0c0-0.2,0-0.4-0.2-0.5
			l0,0c0-0.1,0-0.2,0-0.3c-0.2-0.9-0.3-1.7-0.4-2.6c0-0.7-0.1-1.4,0-2.2c0.1-1,0.2-1.9,0.4-2.9c0.2-0.8,0.3-1.5,0.5-2.3
			c0-0.2,0.1-0.3,0.3-0.4c0.2-0.1,0.5-0.1,0.7-0.2c1.2-0.3,2.3-0.5,3.5-0.6c0.4,0,0.8,0,1.2,0.2c1,0.5,1.9,1,2.8,1.5
			c0.4,0.2,0.7,0.5,1.1,0.6l0,0c0.2,0.2,0.5,0.2,0.7,0.4c0.1,0.1,0.2,0.1,0.3,0c0.3-0.1,0.6-0.2,0.9-0.3c0.5-0.1,0.9-0.2,1.3-0.3
			c1-0.3,2.1-0.6,3.1-0.7c0.2,0,0.3-0.1,0.5-0.1c0.2,0,0.3,0,0.4,0c0.5-0.1,1-0.2,1.5-0.3c1.3-0.2,2.6-0.5,3.9-0.7
			c0.9-0.1,1.7-0.3,2.6-0.4c0.9-0.1,1.8-0.3,2.7-0.3c1.3-0.1,2.6-0.2,3.9-0.2c0.1,0,0.2,0,0.3,0c0.8,0,1.6,0.1,2.4,0.1
			c0.6,0,1.1,0.1,1.7,0c0.7-0.1,1.4-0.1,2.1-0.2c0.3,0,0.5-0.1,0.6-0.3c0.3-0.3,0.5-0.7,0.7-1c0.3-0.4,0.6-0.5,1.1-0.4
			c1.6,0.4,3.1,0.8,4.7,1.3c0.5,0.2,1.1,0.4,1.6,0.5c0,0,0,0,0.1,0c0.2,0.1,0.4,0.2,0.6,0.3l0,0c0.1,0.2,0.3,0.1,0.4,0.2
			c0.6,0.3,1.1,0.6,1.7,0.9c1.1,0.6,2.2,1.4,3.3,2.1c0.1,0.1,0.2,0.2,0.4,0.2c0,0.1,0.1,0.1,0.1,0.1l0,0c0,0.1,0.1,0.1,0.2,0.1l0,0
			c0,0.1,0,0.1,0.1,0.2l0,0c0.4,0.3,0.8,0.7,1.2,1c0.8,0.6,1.4,1.4,2.2,2c0.4,0.3,0.8,0.6,1.1,1c0.6,0.7,1.3,1.3,2,1.9
			c0,0,0.1,0,0.1,0.1c0,0,0.1,0.1,0.1,0.1c0,0.1,0.1,0.1,0.2,0.1c0.2,0.2,0.4,0.4,0.7,0.5l0,0c0,0.1,0,0.1,0.1,0.1l0,0
			c0,0,0,0.1,0.1,0.1l0,0c0.1,0.1,0.2,0.2,0.4,0.3l0,0c0.1,0.1,0.1,0.2,0.3,0.2l0,0c0.1,0.2,0.2,0.3,0.4,0.4c0,0,0,0.1,0.1,0.1
			c0,0,0,0.1,0.1,0.1l0,0c0,0.1,0,0.1,0.1,0.1l0,0c0,0,0,0.1,0.1,0.1c0.2,0.2,0.1,0.5,0.1,0.8c-0.1,0.4-0.2,0.8-0.3,1.3
			c-0.1,0.3-0.2,0.7-0.2,1c0,0.5,0.1,0.9,0.4,1.2c0.2,0.1,0.2,0.3,0.1,0.4c-0.1,0.1-0.2,0.2-0.2,0.4l0,0c-0.1,0-0.1,0-0.1,0.1l0,0
			c0,0-0.1,0-0.1,0.1c0,0,0,0,0,0.1c-0.1,0.1-0.2,0.2-0.3,0.3l0,0c0,0-0.1,0-0.1,0.1l0,0c-0.1,0-0.1,0-0.1,0.1l0,0
			c0,0-0.1,0-0.1,0.1l0,0c-0.1,0-0.1,0-0.1,0.1l0,0c-0.1,0-0.1,0-0.1,0.1l0,0c-0.1,0-0.1,0-0.2,0.1c0,0,0,0-0.1,0c0,0,0,0-0.1,0.1
			l0,0c-0.1,0-0.1,0-0.1,0.1l0,0c-0.1,0-0.1,0-0.2,0.1c0,0,0,0-0.1,0c-0.1,0-0.2,0.1-0.2,0.1c-0.1,0-0.1,0.1-0.1,0.1
			c-0.2,0.1-0.4,0.3-0.6,0.4l0,0c-0.2,0-0.3,0.2-0.4,0.3c0,0-0.1,0-0.1,0.1c-0.1,0-0.1,0.1-0.2,0.1l0,0c-0.1,0-0.2,0-0.3,0.2
			c-0.4,0.1-0.8,0.4-1.1,0.5c-0.7,0.3-1.3,0.6-2,0.9c-0.2,0.1-0.3,0.2-0.4,0.4c-0.1,0.3-0.2,0.5-0.2,0.8c-0.1,0.4-0.3,0.6-0.6,0.9
			c-0.4,0.4-0.9,0.8-1.3,1.2c-0.2,0.2-0.4,0.4-0.6,0.7c0,0,0,0-0.1,0c0,0.1-0.1,0.1-0.1,0.2c0,0,0,0-0.1,0.1c-0.1,0-0.1,0.1-0.1,0.2
			l0,0c-0.1,0.1-0.2,0.2-0.3,0.3l0,0c-0.1,0-0.1,0.1-0.1,0.2c0,0,0,0,0,0c0,0-0.1,0-0.1,0.1l0,0c0,0-0.1,0-0.1,0.1l0,0
			c-0.1,0-0.1,0-0.1,0.1l0,0c-0.1,0-0.2,0.1-0.2,0.2c0,0,0,0,0,0c-0.1,0-0.1,0.1-0.2,0.2c0,0,0,0-0.1,0.1c0,0,0,0,0,0.1l0,0
			c0,0-0.1,0-0.1,0.1c0,0-0.1,0.1-0.1,0.1c0,0,0,0-0.1,0.1c0,0-0.1,0.1-0.1,0.1c-0.1,0-0.1,0.1-0.1,0.1c0,0,0,0,0,0c0,0,0,0,0,0
			c0,0,0,0-0.1,0.1l0,0l0,0c0,0,0,0-0.1,0.1c-0.1,0-0.1,0.1-0.1,0.1c0,0,0,0-0.1,0.1l0,0l0,0c0,0,0,0,0,0.1c-0.1,0-0.1,0-0.1,0.1
			l0,0c-0.1,0-0.1,0.1-0.1,0.1c0,0,0,0,0,0c-0.1,0-0.1,0-0.1,0.1c0,0-0.1,0.1-0.1,0.1c0,0-0.1,0-0.1,0.1l0,0c-0.1,0-0.1,0-0.1,0.1
			l0,0c-0.1,0-0.1,0-0.1,0.1l0,0c-0.1,0-0.1,0-0.1,0.1l0,0c-0.1,0-0.2,0.1-0.2,0.2c-0.9,0.8-1.8,1.4-2.9,2c0.8,0.3,1.6,0.6,2.3,0.9
			c0.5,0.2,1,0.3,1.5,0.6c0.3,0.1,0.6,0.4,0.9,0.4l0,0c0.1,0.2,0.3,0.2,0.5,0.3l0,0c0.1,0.1,0.2,0.2,0.3,0.2l0,0
			c0,0.1,0.1,0.1,0.2,0.1l0,0c0,0.1,0,0.1,0.1,0.2l0,0c0,0.1,0.1,0.1,0.2,0.1l0,0c0,0.1,0,0.1,0.1,0.1c0,0,0.1,0.1,0.1,0.1
			c0,0,0.1,0.1,0.1,0.1c0,0.1,0.1,0.1,0.2,0.2c0.1,0.1,0.1,0.2,0.2,0.3l0,0c0,0.1,0,0.1,0.1,0.1l0,0c0.1,0.4,0.3,0.7,0.3,1.1
			c0,0.1,0.1,0.1,0.2,0.2c0.4,0.2,0.8,0.4,1.3,0.5l0,0c0,0.1,0,0.1,0.1,0.1l0,0c0,0.1,0.1,0.1,0.2,0.1l0,0c0,0.1,0,0.1,0.1,0.1l0,0
			c0.1,0.3-0.3,0.3-0.3,0.5l0,0c-0.1,0-0.2,0.1-0.3,0.2l0,0c-0.1,0-0.1,0-0.1,0.1l0,0c-0.1,0-0.1,0-0.2,0.1l0,0
			c-0.1,0.1-0.2,0.1-0.3,0.3l0,0c-0.1,0-0.1,0-0.1,0.1l0,0c-0.4,0.3-0.8,0.7-1.1,1.1l0,0c-0.5,0.5-0.9,1-1.3,1.5
			c-0.5,0.6-0.9,1.2-1.2,2c-0.2,0.5-0.3,1-0.4,1.6c-0.1,1-0.1,2-0.1,3c0,0.2,0,0.4,0.1,0.6c0,0.1,0.1,0.2,0.2,0.2
			c0.3,0,0.5,0,0.8-0.1c1-0.3,2-0.7,3-0.8c0.3,0,0.5,0,0.8-0.1c1.9-0.4,3.8-0.5,5.6-0.7c0.2,0,0.3,0,0.5,0c0.5,0.1,1.1,0.2,1.6,0.4
			c0.2,0.1,0.4,0.1,0.6,0.1l0,0c0.2,0.2,0.5,0.1,0.8,0.2c0.5,0.3,1,0.3,1.6,0.5c0.4,0.3,0.8,0.4,1.2,0.5c0.4,0.2,0.9,0.3,1.3,0.5
			c1,0.4,1.9,0.7,2.9,1c0.7,0.2,1.4,0.4,2,0.8c0.2,0.1,0.4,0.3,0.6,0.4c0.5,0.2,0.5,0.3,0.5,0.8c0,0.1,0,0.2,0,0.4
			c-0.1,0.3,0,0.6,0.3,0.8c0.3,0.3,0.3,0.3,0.1,0.7c-0.1,0.1-0.1,0.2-0.2,0.3c-0.7,0.9-1.2,1.8-1.5,2.8c-0.1,0.2-0.2,0.3-0.3,0.4
			c-0.4,0.3-0.9,0.5-1.4,0.6c-1,0.2-2,0.3-3,0.3c-0.5,0-1,0-1.5,0.1c-1.1,0.2-2.2,0.4-3.4,0.6c-0.6,0.1-1.2,0.2-1.8,0.5
			c-0.3,0.2-0.6,0.3-1,0.3c-0.4,0.1-0.8,0.2-1.1,0.3c-1.1,0.3-2.2,0.3-3.4,0.2c-1.2-0.1-2.3-0.3-3.5-0.4c-0.5,0-1.1,0-1.6,0.2l0,0
			c-0.1,0-0.2,0-0.3,0.1l0,0l0,0C63,106.2,62.9,106.2,62.8,106.3L62.8,106.3z M44.5,72.9C44.5,72.9,44.6,72.9,44.5,72.9L44.5,72.9
			c0.1-0.1,0.2-0.1,0.2-0.2l0,0c0.1,0,0.1,0,0.1-0.1l0,0c0.1,0,0.1,0,0.1-0.1l0,0c0.1,0,0.1,0,0.1-0.1l0,0c0.3-0.2,0.5-0.4,0.7-0.7
			l0,0c0.1,0,0.2-0.1,0.2-0.2l0,0c0.1,0,0.1,0,0.1-0.1l0,0c0.1,0,0.2-0.1,0.2-0.2l0,0c0.1,0,0.1,0,0.2-0.1l0,0
			c0.1,0,0.1-0.1,0.1-0.2c0.1,0,0.2-0.1,0.2-0.3c0.1,0,0.2-0.1,0.2-0.2l0,0c0.1,0,0.1,0,0.1-0.1l0,0c0.1,0,0.1,0,0.1-0.1l0,0
			c0.1,0,0.2-0.1,0.2-0.2l0,0c0.1,0,0.1-0.1,0.1-0.2l0,0c0.3-0.1,0.4-0.3,0.5-0.6l0,0c0.1,0,0.1-0.1,0.1-0.2c0,0,0,0,0-0.1
			c0.2-0.3,0.5-0.6,0.6-0.9l0,0c0.4-0.4,0.6-0.9,0.7-1.4c0-0.1,0-0.2-0.1-0.3c0-0.1-0.1-0.1-0.2,0c-0.3,0.4-0.7,0.6-1,1l0,0
			c-0.2,0.1-0.3,0.2-0.5,0.4l0,0c-0.1,0-0.1,0-0.2,0.1l0,0c-0.1,0-0.2,0.1-0.3,0.2c-0.1,0-0.1,0.1-0.1,0.1c-0.1,0-0.2,0.1-0.2,0.2
			l0,0c-0.1,0-0.2,0.1-0.3,0.2l0,0c-0.1,0-0.1,0-0.1,0.1l0,0c-0.2,0.1-0.5,0.2-0.6,0.5l0,0c-0.1,0-0.1,0-0.2,0.1l0,0
			c-0.1,0-0.1,0-0.1,0.1l0,0c-0.2,0-0.3,0.1-0.4,0.3l0,0c-0.1,0-0.1,0-0.1,0.1l0,0c-0.1,0-0.1,0-0.1,0.1l0,0c-0.2,0-0.3,0.2-0.5,0.3
			c-0.3,0.1-0.4,0.4-0.7,0.5c-0.6,0.3-1.1,0.7-1.7,1.1c-0.9,0.6-1.8,1.2-2.6,2c-0.3,0.3-0.8,0.6-1.1,0.9c0,0-0.1,0.1-0.1,0.1l0,0
			c-0.1,0-0.1,0-0.1,0.1l0,0c-0.1,0-0.2,0.1-0.2,0.2l0,0c-0.1,0-0.1,0-0.2,0.1l0,0c-0.1,0-0.1,0-0.1,0.1l0,0
			c-0.1,0.1-0.1,0.1-0.2,0.2l0,0c0,0,0,0-0.1,0.1c0,0-0.1,0.1-0.1,0.1c-0.1,0.1-0.2,0.2-0.2,0.4c0.5,0,1,0,1.4-0.1
			c0.5,0.1,1-0.1,1.5-0.1c0.3,0,0.5-0.1,0.8-0.2c0.6-0.3,1.2-0.6,1.7-1c0.6-0.5,1.2-0.9,1.7-1.4C44.4,73.1,44.4,73.1,44.5,72.9
			L44.5,72.9C44.5,73,44.5,73,44.5,72.9L44.5,72.9z M36.7,93.6c-0.1,0-0.1,0-0.1,0.1c-0.5,0.3-1,0.6-1.4,1c-0.1,0-0.3,0.1-0.4,0.2
			c-0.1,0-0.2,0-0.2,0c-0.1,0-0.2,0-0.3,0.1l0,0c-0.1,0-0.3-0.1-0.4,0.1l0,0l0,0c-0.2,0-0.3-0.1-0.6,0.1c0.1,0.2,0.3,0.3,0.4,0.5
			c0.4,0.5,0.8,1.1,0.9,1.8c0.2,1.1,0.9,2,1.8,2.5c0.6,0.4,1.2,0.6,1.9,0.3c0.1,0,0.3-0.1,0.4-0.1c1.4-0.2,2.7-0.5,4-0.9
			c1.4-0.4,2.8-0.9,4.2-1.3c0.7-0.2,1.5-0.3,2.2-0.5c0.3-0.1,0.3-0.2,0.3-0.4c0-0.9,0-1.8-0.2-2.7c0-0.1-0.1-0.3,0-0.4
			c0.2-0.3,0.1-0.4-0.2-0.5l0,0c-0.1-0.3,0.1-0.6,0.2-1c0-0.4,0-0.8,0-1.2c0.1-0.6,0.2-1.2,0.3-1.8c0.2-0.9,0.2-1.7,0-2.6
			c-0.1-0.8-0.5-1.5-0.7-2.3c-0.1-0.3-0.1-0.6-0.3-0.8l0,0c0-0.5,0-1-0.2-1.6c-0.2,0.2-0.4,0.4-0.7,0.3c-0.1,0-0.2,0-0.3,0.1
			c-0.2,0.1-0.4,0.1-0.6,0.2l0,0c-0.1-0.1-0.2-0.1-0.4-0.2c-0.7-0.2-1.5-0.2-2.2-0.2c0,0-0.1-0.1,0-0.2c0-0.1,0.2-0.1,0.1-0.2
			c0-0.1-0.1-0.1-0.2-0.1c-0.2,0-0.4,0.1-0.5,0.3c0,0.1-0.1,0.2-0.2,0.2c-0.7,0.1-1.5,0.3-2.2,0.6c-0.4,0.2-0.9,0.4-1.3,0.5
			c0.2,0.2,0.4,0.3,0.6,0.3c0,0.1,0.1,0.1,0.2,0.1l0,0c0,0.1,0.1,0.1,0.2,0.1l0,0c0.2,0.3,0.6,0.3,0.9,0.5c0.6,0.3,1.2,0.6,1.9,0.7
			c0.1,0.3,0.2,0.6,0,0.9c-0.1,0.2,0,0.4,0.1,0.5c-0.1,0.4-0.1,0.8-0.1,1.2c0,0.3-0.1,0.7,0.1,1l0,0c0,0.1,0,0.1,0,0.2
			c0,0,0,0,0,0.1c-0.1,0-0.1,0.1,0,0.1l0,0c0,0.1,0,0.2,0.1,0.3c0,0.1,0,0.1,0,0.2c0,0.2,0,0.4,0,0.6l0,0c-0.1,0.1-0.1,0.2-0.2,0.3
			l0,0c-0.1,0.1-0.3,0.2-0.5,0.3c-0.4,0.2-0.8,0.2-1,0.5l0,0c-0.1,0-0.2,0.1-0.3,0.2l0,0c-0.3,0.1-0.5,0.4-0.8,0.5
			c-0.5,0.3-1,0.4-1.5,0.2c-0.5-0.2-0.9-0.2-1.3,0.1l0,0c-0.2,0-0.4,0.1-0.5,0.3l0,0c-0.1,0-0.1,0-0.1,0.1l0,0
			c-0.2,0-0.3,0.1-0.4,0.2l0,0c-0.1,0-0.2,0.1-0.3,0.2l0,0C37,93.3,36.9,93.4,36.7,93.6L36.7,93.6C36.8,93.6,36.7,93.6,36.7,93.6
			L36.7,93.6z M40,57c-0.1,0-0.1,0-0.2,0.1l0,0c-0.1,0-0.2,0.1-0.3,0.2l0,0c-0.1,0-0.1,0-0.1,0.1l0,0c-0.2,0-0.3,0.2-0.4,0.3l0,0
			c-0.1,0-0.1,0-0.1,0.1c-0.5,0.3-1,0.6-1.4,0.9c-0.5,0.3-0.9,0.6-1.4,1c-0.2,0.1-0.4,0.2-0.6,0.4c-0.1,0-0.1,0.1-0.2,0.1l0,0
			c-0.2,0.1-0.4,0.2-0.5,0.5l0,0c-0.1,0-0.1,0-0.1,0.1l0,0c-0.1,0.1-0.2,0.2-0.2,0.4c-0.1,0.5,0.1,0.7,0.6,0.7
			c0.6,0,1.3,0.1,1.9,0.1c0,0,0.1,0,0.1,0c0.2,0,0.5,0,0.7,0l0,0l0,0c0.1,0,0.3,0,0.4,0c0.8,0.1,1.6,0,2.4-0.1
			c0.1,0,0.1-0.1,0.2-0.1c0.1,0,0.2,0,0.3-0.1c0.5-0.2,1.1-0.2,1.6-0.1c0.5,0,1,0.1,1.5,0c0.2,0,0.3,0,0.5,0
			c1.1-0.1,2.2-0.1,3.3-0.2c1.3,0,2.5-0.2,3.8-0.2c0.2,0,0.3-0.1,0.4-0.3c0.2-0.5,0.4-1.1,0.6-1.6c0.1-0.5,0.4-0.9,0.4-1.5l0,0
			c0.1,0,0.1-0.1,0.1-0.2c0.1-0.4,0.3-0.9,0.4-1.3c0.3-0.9,0.6-1.9,1.2-2.7c0.2-0.4,0.2-0.4-0.2-0.5c-0.1,0-0.1-0.1-0.2-0.1
			c-0.6-0.2-1.2-0.3-1.8-0.3c-0.3,0-0.5,0.1-0.7,0.3c-0.6,0.6-1.3,1-2.2,1.3c-0.2,0.1-0.5,0.1-0.7,0.2c-0.6,0.1-1.1,0.3-1.7,0.4
			c-0.6,0.1-1.2,0.4-1.7,0.6c-0.1,0-0.2,0.1-0.2,0.2l0,0c-0.1,0-0.2,0-0.3,0.1l0,0c-0.1,0-0.1,0-0.2,0.1c-0.1,0-0.1,0-0.2,0.1
			c-0.1,0-0.2,0.1-0.3,0.2l0,0c-0.1,0-0.2,0.1-0.3,0.2l0,0c-0.1,0-0.2,0-0.3,0c-0.7-0.2-1.5-0.2-2.2-0.2c-0.5,0.1-0.9,0.1-1.3,0.4
			l0,0c-0.1,0-0.3,0.1-0.4,0.2l0,0C40.1,56.9,40,56.9,40,57L40,57z M17.5,122L17.5,122c0,0.1,0.1,0.1,0.2,0.1l0,0
			c0.1,0.1,0.2,0.2,0.4,0.2l0,0c0.2,0.2,0.4,0.3,0.6,0.3l0,0c0,0.1,0,0.1,0.1,0.1l0,0c0.1,0.3,0.5,0.1,0.6,0.3c0,0,0.1,0,0.1,0
			c0.2-0.2,0.6-0.3,0.7-0.6l0,0c0.2-0.1,0.4-0.2,0.5-0.5l0,0c0.1,0,0.2-0.1,0.2-0.2l0,0c0.3-0.1,0.5-0.4,0.7-0.6l0,0
			c0.2-0.1,0.4-0.3,0.5-0.5l0,0c0.1,0,0.1-0.1,0.1-0.2l0,0c0.2-0.1,0.3-0.2,0.3-0.4l0,0c0.2-0.1,0.3-0.2,0.3-0.4l0,0
			c0.1-0.1,0.2-0.2,0.2-0.3c0,0,0.1,0,0.1-0.1c0.3-0.4,0.6-0.9,0.9-1.4c0,0,0-0.1,0-0.1c0.5-0.7,0.9-1.5,1.2-2.3c-0.5,0-1,0-1.4,0.1
			c0,0-0.1,0-0.1,0c-0.1,0-0.1,0-0.2,0c-1,0.1-2,0.2-3,0.3c-1.2,0.2-2.3,0.3-3.4,0.5c-0.2,0-0.5,0-0.6,0.2l0,0c-0.4,0-0.8,0-1.2,0.2
			l0,0c-0.6,0-1.2,0.2-1.9,0.2c-0.3,0-0.6,0-0.8,0.1c0,0-0.1,0-0.1,0c-0.2,0-0.3,0-0.5,0.1c0.1,0.2,0,0.5,0.3,0.6l0,0
			c0,0.1,0,0.3,0.2,0.4l0,0c0,0.1,0,0.3,0.2,0.3l0,0c0.2,0.5,0.5,0.9,1,1.2l0,0c0.3,0.3,0.6,0.6,1,0.7l0,0c0.1,0.1,0.2,0.3,0.4,0.3
			l0,0c0.3,0.3,0.7,0.5,1.1,0.6l0,0c0.3,0.3,0.6,0.4,1,0.5l0,0C17.1,121.9,17.2,122,17.5,122l-0.1-0.1C17.4,122,17.4,122,17.5,122z
			 M37.1,72.8c0.6-0.6,1.3-1.1,2-1.7c0.2-0.2,0.5-0.4,0.6-0.7c-0.2-0.1-0.3-0.1-0.5-0.1c-0.1,0-0.3,0.1-0.4,0c-0.7-0.1-1.3,0.1-2,0
			c-0.1,0-0.2,0-0.1,0.1c0,0.1-0.1,0.1-0.1,0.2c0,0.1,0,0.1,0,0.2c0.1,0.7,0.1,1.4,0,2.1c0,0.1,0,0.3,0.1,0.4
			c0.1-0.2,0.2-0.3,0.3-0.4C37,73,37,73,37.1,72.8C37.1,72.9,37.1,72.9,37.1,72.8z"/>
	</g>
	<g>
		<path class="st0" d="M120.5,80.8c0-0.3,0-0.5,0.1-0.8c0.1-0.3,0.1-0.4-0.2-0.7c-0.2-0.1-0.4-0.2-0.5-0.4c0.1,0,0,0,0,0
			c0.6,0.4,1,0.1,1.2-0.4c0.2-0.4,0.2-0.4,0.6-0.3c0.6,0.2,1.2,0.4,1.9,0.6c1.2,0.4,2.3,0.6,3.5,0.9c0.9,0.2,1.8,0.4,2.7,0.6
			c0.4,0.1,0.4,0.1,0.6-0.2c0.2-0.3,0.3-0.7,0.6-1c0.2-0.2,0.3-0.6,0.7-0.7c0.2-0.1,0.3-0.4,0.4-0.7c0-0.1,0-0.2-0.1-0.2
			c-0.1,0-0.2,0-0.3,0c-1,0.1-1.9-0.3-2.7-0.6c-0.5-0.2-1-0.5-1.5-0.7c-0.8-0.4-1.4-1-1.8-1.8c-0.2-0.3-0.2-0.6-0.2-0.9
			c0-0.3-0.1-0.6-0.4-0.7c-0.2-0.1-0.3-0.3-0.3-0.4c-0.1-0.3-0.1-0.5-0.1-0.8c0-0.3,0-0.4-0.4-0.2c-0.7,0.2-1.4,0.4-2.1,0.3
			c-0.9-0.1-1.7-0.4-2.4-0.9c-1.4-1-2.2-2.5-3.1-3.9c-0.3-0.5-0.6-1.1-0.8-1.6c-0.6-1.4-1.1-2.9-1.3-4.4c-0.1-1-0.2-2,0-3
			c0-0.3,0.2-0.5,0.4-0.7c0.8-0.5,1.5-1,2.1-1.7c0.3-0.3,0.6-0.5,0.9-0.9c0.1-0.1,0.2-0.2,0.3-0.2c0.6-0.4,1.3-0.7,1.9-0.9
			c1.2-0.4,2.5-0.8,3.8-1.2c0.6-0.2,1.2-0.3,1.8-0.5c0.3-0.1,0.7-0.2,1-0.3c0.9-0.3,1.8-0.5,2.7-0.5c0.1,0,0.2,0,0.2-0.1
			c0.3-0.2,0.6-0.2,0.9-0.3c0.6-0.1,1.2-0.2,1.9-0.4c1.8-0.3,3.6-1,5.5-1.1c0.9-0.1,1.7-0.2,2.6-0.1c0.7,0,1.4,0.1,2.1,0.1
			c0.1,0,0.3,0,0.4,0c0.5-0.1,0.9-0.1,1.4,0.1c0.4,0.1,0.8,0.1,1.3,0c0.2,0,0.4,0,0.5-0.1c0.3-0.1,0.6-0.1,0.9,0.2
			c0.1,0.1,0.3,0.1,0.5,0.1c0.6,0,1.2,0,1.8,0.1c0.6,0.1,1.2,0,1.8,0c2-0.1,4-0.2,6.1-0.4c1.6-0.1,3.1-0.2,4.7-0.3
			c0.3,0,0.5,0,0.8,0c0.2,0,0.3,0,0.4-0.1c0.4-0.2,0.7-0.1,0.9,0.3c0.1,0.2,0.2,0.2,0.4,0.2c0.3-0.1,0.6,0.1,0.9,0.2
			c0.2,0.1,0.4,0.4,0.7,0.4c0,0,0.1,0,0.1,0.1c0.1,0.5,0.6,0.6,0.9,0.9c0.6,0.4,1.2,0.8,1.9,1.2c0.2,0.1,0.4,0.3,0.7,0.2
			c0.1,0,0.3,0.1,0.4,0.1c0.6,0.4,1.1,0.8,1.7,1.1c0,0,0.1,0,0.1,0.1c1,0.3,1.5,1.1,2.1,1.8c0.1,0.1,0.1,0.2,0.2,0.2
			c0.3,0.3,0.5,0.6,0.7,1c0.2,0.5,0.5,0.9,0.8,1.4c0.2,0.4,0.4,0.9,0.6,1.3c0.3,0.7,0.2,1.4,0,2.2c-0.3,0.9-0.8,1.8-1,2.8
			c0,0.3-0.2,0.4-0.4,0.5c-0.7,0.4-1.4,0.6-2.1,1c-0.7,0.3-1.2,0.8-1.3,1.7c0,0.3-0.1,0.5-0.2,0.7c-0.1,0.4-0.4,0.6-0.8,0.5
			c-0.4,0-0.7,0.1-0.9,0.5c-0.2,0.4-0.5,0.6-0.6,1c0,0.1-0.1,0.2-0.3,0.2c-0.1,0.1-0.2,0.1-0.2,0.3c0,0.3-0.2,0.5-0.3,0.8
			c-0.7,1.5-1.4,3-1.5,4.8c0,0.6-0.2,1.3-0.3,1.9c-0.1,1.6-0.2,3.2-0.3,4.8c-0.1,1.1-0.3,2.3-0.7,3.4c-0.3,1-0.7,2-0.9,3
			c-0.2,0.9-0.5,1.7-0.7,2.5c-0.2,1.1-0.4,2.1-0.6,3.2c-0.1,0.6-0.2,1.3-0.3,1.9c-0.2,1.1-0.2,2.1-0.3,3.2c0,0.2,0,0.5-0.1,0.7
			c-0.1,0.5-0.1,1,0,1.5c0.1,0.5,0.1,1,0.1,1.5c0,0.8,0.2,1.5,0.4,2.2c0.2,0.5,0.3,1.1,0.4,1.6c0.1,0.9,0.3,1.8,0.5,2.6
			c0.1,0.4,0.1,0.7,0.1,1.1c0.3,1.7,0.4,3.4,0.5,5.1c0,0.6,0.1,1.1,0.2,1.7c0.1,0.8,0.1,1.6,0.1,2.4c0.1,0.9,0.2,1.7,0.2,2.6
			c0,0.9,0.2,1.8,0.1,2.7c-0.1,0.6,0.2,1,0.6,1.4c0.6,0.5,1.2,1.1,1.8,1.6c0.4,0.3,0.7,0.6,0.9,1c0.1,0.2,0.3,0.4,0.6,0.3
			c0.4-0.1,0.7,0.1,1,0.3c0.5,0.4,1.2,0.3,1.5-0.3c0.4-0.6,0.6-1.3,0.6-2c0.1-1.2-0.1-2.3-0.4-3.4c-0.2-1-0.3-2.1-0.2-3.2
			c0-0.4,0.2-0.8,0.2-1.3c0.1-1.5,0-3,0-4.4c0-0.6-0.2-1.3-0.3-1.9c-0.1-0.7-0.4-1.4-0.5-2.1c-0.1-0.5-0.4-1-0.8-1.4
			c-0.2-0.2-0.3-0.3-0.3-0.6c-0.2-0.7-0.5-1.3-0.8-1.9c-0.4-0.9-0.8-1.8-1.1-2.8c-0.3-0.7-0.5-1.4-0.8-2.1c-0.4-1.3-0.7-2.6-0.8-4
			c0-0.1,0-0.2,0-0.3c0-0.2,0.1-0.3,0.4-0.3c0.2,0,0.3,0.1,0.5,0.2c1.4,0.8,2.7,1.8,3.8,2.9c0.5,0.5,0.9,1.2,1.4,1.8
			c0.2,0.2,0.3,0.4,0.5,0.5c0.1,0.1,0.2,0.2,0.3,0.4c0.1,0.3,0.2,0.4,0.5,0.4c0.5,0.1,0.6,0.2,0.5,0.7c-0.1,0.4-0.1,0.8,0.3,1.1
			c-0.1,0.4,0.2,0.6,0.3,0.9c0.1,0.4,0.3,0.8,0.5,1.1c0.2,0.3,0.3,0.7,0.5,1.1c0.4,1,0.9,1.9,1.3,2.9c0.3,0.7,0.5,1.3,0.8,2
			c0.8,1.8,1.5,3.7,2.5,5.4c0.8,1.5,1.6,2.9,2.6,4.2c0.8,1,1.7,1.8,2.7,2.5c0.1,0.1,0.2,0.1,0.3,0.2c0.9,1.5,1.8,2.9,2.5,4.5
			c0.5,1.1,0.7,2.2,0.8,3.3c0.1,0.8,0,1.5-0.1,2.3c-0.2,1.1-0.6,2-1.2,3c-0.3,0.5-0.7,1.1-1.1,1.5c-1,1.1-2.1,1.7-3.5,1.9
			c-0.5,0.1-1,0.2-1.5,0.2c-1.2,0.1-2.3,0.1-3.4-0.1c-0.8-0.1-1.5-0.3-2.3-0.5c-1.5-0.3-3.1-0.6-4.6-0.8c-1-0.2-2-0.4-3-0.7
			c-0.2-0.1-0.5-0.1-0.7-0.2c-1-0.2-1.9-0.6-2.8-0.9c-0.3-0.1-0.6-0.3-0.8-0.6c-0.9-1.1-1.7-2.2-2.6-3.2c-0.7-0.7-1.2-1.5-1.9-2.2
			c-0.3-0.3-0.4-0.3-0.8-0.1c-0.3,0.2-0.6,0.4-0.9,0.7c-0.4,0.4-0.8,0.9-1.2,1.3c-0.1,0.2-0.3,0.3-0.4,0.4c-0.1,0.1-0.2,0.1-0.2,0.2
			c0.1,0.6-0.5,0.8-0.7,1.1c-0.4,0.4-0.8,0.9-1.1,1.4c-0.3,0.4-0.6,0.8-1,1c-0.6,0.5-1.3,0.9-2,1.3c-0.9,0.5-1.8,0.8-2.6,1.5
			c-0.2,0.2-0.4,0.2-0.6,0.3c-0.9,0.4-1.9,0.6-2.8,0.9c-0.8,0.2-1.6,0.4-2.4,0.7c-0.7,0.3-1.5,0.4-2.2,0.8c-0.3,0.1-0.5,0.1-0.8,0.1
			c-1.4-0.2-2.7-0.4-4-0.9c-0.8-0.3-1.6-0.5-2.4-0.8c-0.8-0.3-1.5-0.7-2.2-1c-0.7-0.3-1.5-0.7-2.2-1.1c-1.2-0.6-2.4-1.3-3.5-2
			c-0.9-0.6-1.9-1.2-2.7-1.9c-0.4-0.4-0.9-0.5-1.4-0.5c-1.2,0-2.5-0.1-3.7-0.2c-0.3,0-0.6-0.1-1-0.1c-1.1,0-2.2-0.2-3.3-0.3
			c-0.2,0-0.4-0.1-0.6-0.2c-0.9-0.6-1.7-1.2-2.5-2c-0.7-0.7-1.2-1.5-1.2-2.5c0-0.7,0.2-1.3,0.7-1.9c0.2-0.3,0.5-0.4,0.8-0.5
			c0.9-0.1,1.7-0.3,2.6-0.5c0.8-0.2,1.7-0.4,2.5-0.6c1.2-0.3,2.4-0.7,3.6-0.9c1.6-0.4,3.3-0.6,4.9-1.1c1.5-0.4,3-0.7,4.6-1
			c0.8-0.2,1.5-0.3,2.3-0.4c0.4-0.1,0.7-0.1,1.1-0.3c0.4-0.1,0.8-0.2,1.2-0.2c0.2,0,0.3,0,0.5-0.1c0.8-0.3,1.6-0.4,2.4-0.5
			c0.1,0,0.2,0,0.3-0.1c0.8-0.4,1.7-0.4,2.5-0.4c0.6,0,1.2,0.1,1.7,0.1c1.1,0.1,2,0.6,2.7,1.4c0.5,0.5,1,1.1,1.5,1.6
			c0.2,0.2,0.3,0.5,0.3,0.8c-0.1,0.5-0.2,0.9-0.3,1.4c-0.2,0.8-0.6,1.5-1.1,2.3c-0.2,0.3-0.4,0.5-0.8,0.5c-1.7,0-3.4,0-5.1,0.1
			c-0.6,0-1.2,0.1-1.7,0.2c-2.7,0.3-5.2,1-7.9,1.6c-1.2,0.2-2.4,0.5-3.6,0.8c-0.1,0-0.2,0-0.2,0.1c-0.2,0.1-0.2,0.2-0.1,0.3
			c0.1,0.2,0.3,0.4,0.5,0.6c0.6,0.5,1.2,1,2,1.2c0.4,0.1,0.8,0.2,1.2,0.4c0.7,0.3,1.5,0.5,2.3,0.6c0.1,0,0.2,0,0.3,0.1
			c2,0.7,4,1.1,6.1,1.3c0.7,0.1,1.4,0.2,2.1,0.2c0.2,0,0.4,0,0.5-0.1c0.6-0.4,1.2-0.7,1.8-1.2c0.7-0.5,1.3-1,1.8-1.6
			c1.4-1.4,2.3-3.1,3.4-4.7c0.2-0.3,0.4-0.7,0.7-1c0.4-0.4,0.7-1,1.1-1.4c0.7-0.8,1.2-1.8,1.7-2.7c0.4-0.7,0.7-1.3,1-2.1
			c0.3-0.7,0.4-1.5,0.6-2.2c0.1-0.2,0-0.4-0.1-0.5c-0.7-0.9-1.7-1.4-2.8-1.7c-1.3-0.3-2.5-0.4-3.8-0.2c-0.4,0.1-0.9,0.2-1.3,0.3
			c-1.3,0.3-2.5,0.7-3.7,1.1c-1.3,0.4-2.5,0.9-3.7,1.4c-1.5,0.6-3,1.1-4.5,1.6c-0.8,0.2-1.6,0.5-2.5,0.6c-0.6,0.1-1.1,0.1-1.7,0.2
			c-0.3,0-0.6-0.1-0.8-0.3c-0.7-0.5-1.3-1.2-2-1.7c-1.2-1-2.4-1.9-3.4-2.9c-1.3-1.2-2.5-2.6-3.2-4.3c-0.5-1-0.6-2.1-0.4-3.3
			c0.1-0.9,0.1-1.9,0.3-2.8c0.2-1.8,0.4-3.6,0.6-5.5c0.1-0.9,0.2-1.7,0.3-2.6c0.1-0.9,0.2-1.8,0.3-2.7c0-0.7,0-1.3,0.1-2
			c0.1-0.6,0-1.3,0-2c0-0.8-0.1-1.6,0-2.5c0-0.6,0-1.1,0.1-1.7c0.1-0.8,0.2-1.7,0.3-2.5c0.1-1,0.2-2,0.4-2.9
			c0.2-1.1,0.3-2.2,0.6-3.3C120.4,81.9,120.4,81.4,120.5,80.8C120.5,80.8,120.5,80.9,120.5,80.8C120.6,80.8,120.5,80.8,120.5,80.8z
			 M144.4,77.2c0.1,0.2,0.2,0.2,0.3,0.2c1,0.4,2,0.8,2.9,1.3c1.1,0.7,2.2,1.5,2.9,2.6c0.6,0.9,0.9,1.9,0.7,2.9
			c-0.2,1.1-0.5,2.1-0.9,3.1c-0.7,1.5-1.5,2.9-2.2,4.4c-0.5,1.1-1,2.1-1.5,3.2c-0.5,1.3-0.9,2.6-1.1,4c-0.1,0.5-0.4,0.8-0.8,1
			c-0.1,0-0.2,0.1-0.3,0.2c-0.5,0.5-1.2,0.7-1.7,1.2c-1,0.2-1.9,0.6-2.9,0.4c-0.1,0-0.3,0-0.4,0c-0.3,0.1-0.6,0.1-0.8-0.1
			c-0.1-0.1-0.2-0.1-0.3-0.1c-0.3,0-0.6,0-0.9-0.1c-0.1,0-0.3,0-0.3,0.2c0,0.2-0.2,0.4-0.3,0.2c-0.3-0.3-0.6-0.2-0.9-0.1
			c-0.9,0.2-1.7,0.1-2.5-0.2c-0.5-0.2-1-0.3-1.5-0.5c-0.2-0.1-0.4,0-0.4,0.2c-0.1,0.5-0.2,0.9-0.3,1.4c-0.2,0.6-0.3,1.2-0.4,1.8
			c-0.1,0.3,0,0.6-0.2,0.9c-0.2,0.6-0.2,0.7,0.5,0.8c0.1,0,0.1,0,0.2,0c0.4-0.1,0.9-0.1,1.3-0.2c0.3,0,0.5-0.1,0.7-0.2
			c0.6-0.4,1.2-0.5,1.7-1c0.1-0.1,0.2-0.1,0.3-0.1c0.5-0.2,1-0.4,1.4-0.7c0.6-0.3,1.2-0.5,1.9-0.8c0.7-0.2,1.4-0.1,2.1-0.3
			c0.1,0,0.2,0,0.4,0.1c1,0.4,2.1,0.8,3.2,1.1c0.2,0,0.3,0.1,0.4,0.2c0.7,0.4,1.4,0.8,2.2,1.1c0.5,0.2,0.6,0.3,0.5,0.8
			c-0.1,0.6-0.1,1.1,0,1.7c0.1,0.9,0,1.8-0.3,2.6c-0.1,0.3-0.3,0.4-0.5,0.5c-0.7,0.1-1.4,0.3-2.1,0.4c-0.6,0.1-1.1,0.2-1.7,0.3
			c-1.6,0.1-3.2,0.1-4.8,0.7c-0.5,0.2-1,0.5-1.4,0.9c-0.4,0.3-0.7,0.8-1,1.2c-0.2,0.3-0.3,0.4-0.7,0.2c-0.3-0.2-0.7-0.1-1,0
			c-0.2,0.1-0.4,0.2-0.6,0.2c-0.2,0.1-0.5,0.2-0.8,0.1c-0.3,0-0.4-0.1-0.3-0.4c0.1-0.5,0.3-1.1,0.4-1.6c0.1-0.4,0.3-0.9,0.6-1.2
			c0.2-0.3,0.1-0.4-0.1-0.6c-0.4-0.4-0.7-0.8-1-1.3c-0.3-0.5-0.7-1-0.9-1.5c-0.2-0.4-0.4-0.6-0.8-0.8c-0.1,0.1-0.1,0.2-0.1,0.3
			c0,0.4,0.2,0.8,0.1,1.2c-0.1,0.9-0.1,1.9-0.3,2.8c-0.2,0.9-0.2,1.8-0.3,2.7c-0.1,0.8-0.1,1.6,0,2.5c0.1,0.4,0.1,0.5,0.5,0.4
			c1-0.2,2.1-0.4,3.1-0.6c2.1-0.5,4.1-1.3,6.2-1.7c0.7-0.1,1.3-0.3,2-0.4c0.9-0.1,1.9-0.1,2.8-0.1c0.4,0,0.8,0,1.1,0.1
			c0.8,0.2,1.7,0.4,2.5,0.7c1.7,0.6,3.5,1,5.3,1.2c0.7,0.1,1.4,0.2,2.2,0.1c0.3-0.1,0.4-0.1,0.4-0.4c0-0.3,0-0.6,0-0.9
			c0.1-0.4,0-0.8-0.1-1.2c-0.1-0.4-0.3-0.8,0-1.2c0,0,0-0.1,0-0.2c0-0.9-0.1-1.9-0.1-2.8c0.1-0.8,0-1.6,0-2.3c0-1.4,0-2.8,0-4.2
			c0-1.3-0.1-2.5,0.1-3.8c0.3-1.8,0.2-3.6,0.4-5.4c0.1-1.3,0.2-2.5,0.4-3.8c0.1-0.9,0.3-1.9,0.3-2.8c0.1-1,0.4-2,0.3-3.1
			c0.2-0.4,0.2-0.8,0.3-1.1c0.1-0.5,0.3-1,0.3-1.6c0.1-1,0.3-2,0.5-3c0.2-1.4,0.4-2.8,0.6-4.1c0.1-0.7,0.2-1.3,0.3-2
			c0.1-0.7,0.2-1.3,0.4-2c0.2-0.8,0.3-1.7,0.4-2.5c0.1-0.8,0.1-1.7,0.4-2.5c0,0,0-0.1,0-0.1c0-0.5,0.1-1,0.2-1.5
			c0.3-1.6,0.3-3.3,0.4-5c0-0.6,0.1-1.2,0-1.8c-0.1-0.5-0.1-0.6-0.6-0.6c-1,0-1.9,0-2.9,0.1c-1.3,0.1-2.6,0.5-3.9,0.6
			c-0.7,0.1-1.3,0.4-2,0.6c-1.1,0.2-2.1,0.6-3.2,0.9c-0.8,0.2-1.6,0.6-2.4,0.8c-0.8,0.2-1.5,0.8-2.3,1c-0.1,0-0.1,0.1-0.2,0.1
			c-0.4,0.2-0.7,0.5-1.1,0.6c-0.8,0.3-1.5,0.8-2.3,1.2c-0.4,0.3-0.9,0.5-1.4,0.7c-0.8,0.3-1.5,0.7-2.2,1.1c-0.2,0.1-0.4,0.2-0.5,0.4
			c-0.1,0.2-0.3,0.3-0.5,0.3c-0.2,0-0.4,0.1-0.6,0.2c-0.5,0.4-1,0.6-1.5,0.9c-1.4,0.7-2.6,1.5-4,2.2c-0.1,0.1-0.3,0.2-0.4,0.2
			c-0.1,0.1-0.1,0.2-0.1,0.3c0,0.1,0.2,0.2,0.3,0.2c0.1,0,0.2,0,0.3-0.1c0.4-0.1,0.9-0.2,1.3-0.3c0.8-0.1,1.5-0.4,2.2-0.6
			c1.6-0.7,3.2-1.3,4.8-2c1.2-0.5,2.4-0.7,3.6-0.5c0.9,0.1,1.9,0.1,2.8,0.6c0.1,0,0.2,0,0.2,0.1c0.6,0.2,1.1,0.5,1.6,1
			c0.1,0.1,0.2,0.2,0.4,0.3c0.5,0.3,0.9,0.9,1.4,1.2c0.1,0,0.1,0.1,0.1,0.2c0.5,0.7,0.9,1.4,1.2,2.1c0.1,0.2,0.1,0.4,0.1,0.6
			c0.1,0.7-0.1,1.3-0.2,2c0,0.3-0.2,0.6-0.3,0.8c-0.2,0.3-0.3,0.4-0.7,0.5c-0.5,0.1-1,0.2-1.5,0.3c-0.3,0-0.5,0.1-0.7,0.3
			C145.6,76.1,145.1,76.7,144.4,77.2z M136.6,81.1c-0.8,0.1-1.6,0.2-2.3,0.4c-0.7,0.2-1.2,0.6-1.7,1.1c-0.4,0.4-0.6,0.9-0.5,1.4
			c0.1,0.5,0.1,0.9,0.3,1.4c0.1,0.4,0.1,0.4,0.5,0.3c0.6-0.1,1.3-0.3,1.9-0.4c1.2-0.2,2.3-0.4,3.5-0.7c0.2,0,0.3-0.1,0.3-0.3
			c0.2-0.5,0.2-1,0.4-1.4c0.2-0.7,0.1-1-0.6-1.4C137.8,81.1,137.2,81.2,136.6,81.1z M132,93.4c0,0.1,0,0.2,0,0.3
			c0,0.2-0.1,0.4,0.1,0.5c0.3,0.1,0.3-0.2,0.4-0.4c0.5-0.8,1-1.6,1.6-2.3c0.5-0.5,0.9-1.1,1.2-1.8c0.2-0.3,0.2-0.4-0.1-0.6
			c-0.8-0.5-1.6-0.8-2.6-0.8c-0.2,0-0.3,0-0.3,0.2c-0.1,0.4-0.3,0.9-0.1,1.3c0.1,0.3,0.1,0.6-0.1,0.9c-0.1,0.2-0.1,0.5-0.1,0.7
			C132,92.1,132,92.7,132,93.4z M131.8,95.6c0,0.1,0,0.2,0,0.3c0.1,0.5,0.1,0.5,0.5,0.6c0.5,0.1,1.1,0.1,1.6-0.1
			c0.2-0.1,0.3-0.1,0.5-0.1c0.8,0,1.2-0.6,1.5-1.2c0.1-0.2,0.1-0.3-0.2-0.4c-0.2-0.1-0.5-0.2-0.7-0.2c-0.7,0.1-1.4,0.1-2.1,0.4
			c-0.3,0.1-0.6,0.2-0.9,0.1c-0.2,0-0.3,0-0.3,0.2C131.8,95.3,131.8,95.4,131.8,95.6z"/>
		<path class="st0" d="M101,109.8c0-0.5,0.1-1,0.2-1.5c0-0.3,0.1-0.5,0.2-0.8c0.1-0.7,0.3-1.4,0.4-2.1c0.2-1,0.4-1.9,0.5-2.9
			c0.2-1,0.3-2,0.4-3.1c0.2-2,0.4-4.1,0.5-6.1c0.2-2.7,0.3-5.3,0.5-8c0.1-1.5,0.1-3.1-0.1-4.6c-0.3-2.4-0.7-4.7-1-7.1
			c-0.1-1-0.1-1.9-0.2-2.9c0-0.9,0-1.7,0-2.6c0.1-1,0.2-0.9,1-0.6c1,0.5,2,1.1,2.9,1.8c1.1,0.8,2.1,1.6,3.2,2.4
			c0.7,0.5,1.4,1,2.2,1.4c1.5,0.8,2.9,1.7,4.2,2.7c0.9,0.7,1.6,1.6,2.1,2.6c0.3,0.5,0.4,1.2,0.5,1.8c0.1,0.9-0.1,1.7-0.4,2.5
			c-0.1,0.2-0.1,0.4-0.1,0.6c0.1,0.3-0.1,0.6-0.2,0.8c-0.2,0.4-0.3,0.8-0.3,1.2c0,0.3-0.2,0.6-0.3,0.9c-0.2,0.7-0.4,1.4-0.5,2.1
			c-0.2,0.8-0.5,1.6-0.6,2.4c-0.1,0.8-0.5,1.6-0.6,2.4c-0.1,0.8-0.4,1.6-0.6,2.4c-0.3,1.4-0.5,2.8-0.7,4.3c-0.1,0.9-0.1,1.9-0.2,2.8
			c-0.1,0.7-0.2,1.3-0.3,2c-0.1,0.7-0.2,1.4-0.3,2.1c-0.3,1.6-0.6,3.1-0.9,4.6c-0.5,2.4-1.2,4.8-1.9,7.2c-0.5,1.6-1,3.2-1.7,4.7
			c-0.3,0.7-0.7,1.2-1.1,1.9c-1.1,1.7-2.5,3.1-3.9,4.5c-1.4,1.3-2.9,2.4-4.5,3.4c-1.6,1-3.3,1.6-5.1,2.2c-0.1,0-0.1,0-0.2,0
			c-0.4,0.1-0.5,0-0.5-0.4c-0.1-1.4-0.2-2.8-0.4-4.2c-0.1-0.9-0.1-1.8-0.3-2.8c-0.1-0.5-0.1-1.1-0.1-1.6c0-0.4,0-0.8-0.1-1.2
			c0-0.1,0-0.2,0-0.4c0-0.4,0.2-0.6,0.6-0.7c0.6-0.1,1.2,0,1.8,0.2c0.3,0.1,0.5,0.1,0.8,0.1c0.3,0.1,0.6-0.1,0.8-0.3
			c0.8-1,1.6-2.1,2.1-3.3c0.6-1.2,0.9-2.5,1.1-3.8c0.2-0.9,0.3-1.9,0.4-2.8c0.1-0.8,0.2-1.7,0.3-2.6c0-0.3,0-0.6,0.1-0.9
			C101,110.4,101.1,110.1,101,109.8z"/>
	</g>
</g>
</svg>
